<?xml version="1.0" encoding="UTF-8" standalone="no"?>
<!-- Created with Inkscape (http://www.inkscape.org/) -->

<svg
   version="1.1"
   id="svg1"
   width="853.33331"
   height="853.33331"
   viewBox="0 0 853.33331 853.33331"
   sodipodi:docname="madra_logo.svg"
   inkscape:version="1.4.2 (ebf0e940, 2025-05-08)"
   inkscape:export-filename="madra_logo.svg"
   inkscape:export-xdpi="96"
   inkscape:export-ydpi="96"
   xmlns:inkscape="http://www.inkscape.org/namespaces/inkscape"
   xmlns:sodipodi="http://sodipodi.sourceforge.net/DTD/sodipodi-0.dtd"
   xmlns="http://www.w3.org/2000/svg"
   xmlns:svg="http://www.w3.org/2000/svg">
  <defs
     id="defs1" />
  <sodipodi:namedview
     id="namedview1"
     pagecolor="#ffffff"
     bordercolor="#000000"
     borderopacity="0.25"
     inkscape:showpageshadow="2"
     inkscape:pageopacity="0.0"
     inkscape:pagecheckerboard="0"
     inkscape:deskcolor="#d1d1d1"
     showgrid="false"
     inkscape:zoom="1.0007813"
     inkscape:cx="371.70959"
     inkscape:cy="468.63387"
     inkscape:window-width="896"
     inkscape:window-height="821"
     inkscape:window-x="735"
     inkscape:window-y="69"
     inkscape:window-maximized="0"
     inkscape:current-layer="g1"
     inkscape:export-bgcolor="#ffffff00" />
  <g
     inkscape:groupmode="layer"
     inkscape:label="Image"
     id="g1">
    <path
       style="fill:#000000"
       d="M 387.30361,795.14654 C 312.50867,788.47036 245.94591,762.7176 189.85062,718.75308 175.87567,707.80025 143.46412,676.0031 133.53248,663.50253 66.60319,579.26114 39.670021,476.53965 57.361945,372.99267 c 6.143592,-35.9571 15.752793,-65.57853 32.341596,-99.69656 17.594399,-36.18623 36.808899,-63.55797 65.911129,-93.89277 56.47517,-58.86705 126.48309,-95.483083 209.14109,-109.38643 21.85699,-3.676416 80.78743,-4.348148 102.66035,-1.170197 55.82168,8.110422 104.6056,26.034355 149.30033,54.855137 96.9441,62.51309 157.9243,167.30909 164.40981,282.54239 3.73345,66.33505 -9.93225,130.92363 -40.04948,189.2871 -56.26717,109.03883 -163.49747,183.6285 -284.34912,197.79399 -16.05327,1.88166 -56.77791,2.95 -69.42404,1.82121 z m 71.10452,-8.55849 c 67.04112,-8.58512 131.83106,-36.49098 184.73689,-79.56855 15.52944,-12.64455 41.4279,-38.99411 53.50899,-54.44101 C 744.1604,591.83677 770.3721,522.85138 774.69782,447.17851 782.86191,304.35828 704.20284,170.22782 576.14479,108.60335 538.77461,90.619968 505.80478,80.715832 464.09313,74.943045 445.24873,72.335026 384.13528,73.394847 364.76691,76.665547 262.30688,93.967771 174.95425,150.23587 119.00914,234.97014 81.161887,292.29346 61.326705,354.57205 59.130878,422.97618 c -1.936228,60.31714 9.831948,114.80245 36.48916,168.94067 11.333612,23.01748 20.382582,37.64991 36.446122,58.93444 12.55755,16.63901 45.71232,50.33295 61.7757,62.7803 44.9976,34.86819 102.93858,60.81976 156.77771,70.22021 32.58675,5.68973 76.0992,6.79431 107.78856,2.73625 z m -56.4911,-22.83754 c -6.23397,-0.53983 -15.71671,-1.3096 -21.07275,-1.71062 l -9.73826,-0.72912 0.39479,-5.55097 0.3948,-5.55097 7.52774,0.35257 7.52775,0.35257 0.74984,-6.44436 c 0.41242,-3.54439 1.12431,-11.39879 1.58198,-17.45421 l 0.83213,-11.00986 4.19433,-0.0281 c 2.30689,-0.0155 5.60972,0.33502 7.33963,0.77885 3.10949,0.79777 3.13544,0.95286 2.27924,13.62412 -0.47633,7.04944 -1.17949,14.68745 -1.56256,16.97336 l -0.6965,4.15619 8.24895,0.8421 c 7.65298,0.78126 8.19276,1.0536 7.47121,3.76947 -0.42776,1.61006 -0.78368,4.27752 -0.79092,5.9277 -0.007,1.65018 -0.76327,2.92889 -1.68004,2.84156 -0.91677,-0.0873 -6.76739,-0.60044 -13.00136,-1.14026 z m 38.48977,-3.36047 c -0.096,-1.61449 -0.55921,-9.50947 -1.02937,-17.5444 l -0.85482,-14.60896 -12.41411,0.53469 -12.41411,0.53469 0.40582,-5.78489 0.40582,-5.78488 18.57339,-1.18458 c 10.21536,-0.65152 18.75396,-1.00628 18.97467,-0.78835 0.54875,0.54184 3.40246,45.10686 2.91401,45.50667 -0.21464,0.17569 -3.53947,0.71004 -7.38851,1.18744 -6.53059,0.80999 -7.00991,0.67184 -7.17279,-2.06743 z m 21.60528,-16.10686 c -2.78512,-14.16572 -3.00272,-17.12739 -1.5783,-21.48171 2.0729,-6.33669 8.88016,-11.12157 18.81941,-13.22835 14.73648,-3.12361 23.6999,2.53419 26.62816,16.80794 0.86465,4.21471 2.3997,11.24463 3.41123,15.62206 1.01153,4.37742 1.41031,8.3739 0.88618,8.88106 -0.52414,0.50717 -3.77462,1.36667 -7.22329,1.91001 -7.14552,1.12578 -5.9674,3.06232 -10.32449,-16.9708 -1.39845,-6.42979 -3.27186,-12.55948 -4.16313,-13.62152 -2.32307,-2.76817 -8.84078,-2.30479 -11.95554,0.84999 -3.25886,3.30071 -3.27041,2.82354 0.49083,20.28171 3.38043,15.69062 3.66656,14.89666 -5.92525,16.44109 l -5.83531,0.93958 z m -119.08591,12.25167 c -9.31396,-2.70054 -15.70008,-9.16167 -15.71137,-15.89592 -0.005,-3.00532 0.78304,-3.12414 8.46223,-1.27588 3.6652,0.88215 6.09797,2.37646 6.9306,4.25705 0.96733,2.18483 2.43106,2.88509 5.94936,2.84623 7.22303,-0.0798 5.7482,-3.18141 -3.83676,-8.06889 -4.67333,-2.38299 -9.59402,-5.31202 -10.93487,-6.50898 -5.84815,-5.22054 -3.6541,-17.23538 3.87418,-21.21541 5.13351,-2.71396 10.68619,-2.75996 20.30502,-0.16823 9.12043,2.45745 14.31661,7.26753 15.47582,14.32592 l 0.82903,5.04793 -6.53857,-0.90632 c -7.91343,-1.0969 -8.53936,-1.43387 -8.54467,-4.60003 -0.005,-2.74277 -8.01227,-6.06594 -11.39576,-4.72922 -4.0345,1.59393 -1.65014,4.68157 6.77719,8.7762 13.31983,6.47177 16.84774,13.04787 12.0365,22.43633 -3.0568,5.96489 -13.803,8.5424 -23.67793,5.67922 z m 178.2834,-14.096 c -2.86857,-1.62812 -6.00824,-5.07042 -6.01079,-6.59017 -8.6e-4,-0.51357 2.51019,-1.96731 5.58012,-3.23053 4.66942,-1.92138 6.10278,-2.02384 8.77007,-0.62691 2.64712,1.38636 3.79247,1.32375 6.74666,-0.36878 1.95705,-1.12125 3.5568,-2.91566 3.555,-3.98758 -0.003,-1.60183 -2.16865,-1.84069 -12.16069,-1.34109 -14.01206,0.70059 -17.19911,-0.42172 -19.98745,-7.03849 -4.65162,-11.03838 4.39225,-21.28251 21.83757,-24.73573 7.27598,-1.44025 13.37037,0.46406 16.74361,5.23188 2.49897,3.53209 2.12576,4.02509 -5.2718,6.96392 -4.91711,1.95341 -5.67268,1.96801 -7.5187,0.14523 -3.6671,-3.6209 -14.86193,0.98036 -12.31546,5.06186 0.6317,1.0125 4.55623,1.14643 12.58531,0.42949 11.63824,-1.0392 11.67861,-1.03189 16.17318,2.92885 11.43732,10.07889 0.46378,26.05749 -19.22909,27.99954 -3.88415,0.38305 -7.97931,0.0202 -9.49754,-0.84149 z M 274.53655,732.39158 c -3.66961,-1.84819 -6.77594,-3.43984 -6.90295,-3.53699 -0.5337,-0.40822 4.38576,-47.5598 5.03014,-48.21246 0.38838,-0.39337 3.50077,0.48935 6.91642,1.9616 5.32248,2.29415 6.2112,3.22713 6.21673,6.52639 0.006,3.34171 0.93062,4.26879 7.01148,7.02708 6.74779,3.06081 7.09745,3.08866 9.52195,0.75829 2.42292,-2.32884 2.74661,-2.31473 8.66693,0.37791 3.3825,1.53841 6.42099,2.97679 6.7522,3.19641 0.94444,0.62624 -33.67241,35.36211 -35.1883,35.30927 -0.74392,-0.0259 -4.355,-1.5593 -8.0246,-3.4075 z m 13.11474,-18.44669 c 5.05546,-6.23875 4.85292,-7.51006 -1.49522,-9.38533 -2.0462,-0.60445 -3.02572,-0.3273 -3.07789,0.87086 -0.0421,0.96661 -0.54084,4.61277 -1.10833,8.10258 -0.56748,3.48982 -0.59922,6.34034 -0.0705,6.3345 0.5287,-0.006 3.11708,-2.67101 5.75195,-5.92261 z m 274.98204,10.67025 c -1.85619,-3.11327 -2.06216,-4.37587 -0.83945,-5.14592 0.89114,-0.56124 5.75918,-3.39658 10.81786,-6.30077 9.23202,-5.30011 10.142,-6.40943 8.00208,-9.75507 -0.92442,-1.44527 -2.88568,-0.82127 -9.76876,3.10807 -4.73667,2.70401 -9.17507,4.92261 -9.86311,4.93021 -0.68804,0.008 -2.30182,-1.74869 -3.58618,-3.90287 -2.64212,-4.43146 -3.39862,-3.57773 10.06764,-11.36165 7.04695,-4.07335 6.95091,-3.92127 4.71548,-7.46694 -1.54113,-2.44441 -2.06944,-2.29649 -12.4622,3.48926 -5.96907,3.32304 -11.22656,6.04601 -11.68332,6.05106 -0.79407,0.009 -4.91068,-7.09555 -4.91299,-8.47871 -6.2e-4,-0.36569 8.24063,-5.37968 18.31387,-11.14218 10.07325,-5.76251 20.92882,-12.6089 24.1235,-15.2142 l 5.8085,-4.73692 8.72301,4.20214 c 7.72792,3.72278 8.94926,3.97299 10.7063,2.19338 1.75705,-1.77962 1.42618,-2.75993 -2.90044,-8.59346 l -4.88373,-6.5847 5.32208,-4.28006 c 2.92715,-2.35403 5.89045,-3.93539 6.58511,-3.51413 1.7974,1.08999 28.53508,35.19322 27.97527,35.68175 -0.25508,0.2226 -6.34386,5.04915 -13.53064,10.72567 -13.71685,10.83434 -17.85503,12.30887 -25.28267,9.00881 -5.9976,-2.6647 -9.3112,-11.49481 -6.38452,-17.01352 1.07734,-2.03151 -0.0956,-2.95393 -8.24048,-6.48067 -5.22314,-2.2616 -9.66821,-3.93821 -9.87794,-3.72579 -0.20973,0.21242 4.40821,8.95274 10.26209,19.42292 5.85387,10.47019 10.63004,19.39261 10.61371,19.8276 -0.0358,0.95299 -32.47396,19.15032 -34.17035,19.16905 -0.65451,0.007 -2.29688,-1.84333 -3.64972,-4.11236 z m 57.3799,-42.15048 c 5.07313,-3.51407 5.42093,-5.07096 1.84575,-8.26246 -2.45103,-2.18799 -2.75413,-2.1542 -6.60033,0.73577 -4.83,3.62919 -6.06757,6.34203 -4.01106,8.79256 2.09546,2.49695 3.65946,2.27108 8.76564,-1.26587 z m -381.77044,29.80446 c -2.34491,-0.68494 -7.32788,-4.05289 -11.07327,-7.48433 -7.41533,-6.79375 -9.8075,-13.42395 -6.46881,-17.92911 1.65825,-2.23761 2.03078,-2.18938 6.58119,0.85194 3.0146,2.01484 5.11258,4.65446 5.59446,7.03877 1.09378,5.41205 10.28031,9.08413 10.27197,4.10596 -0.001,-0.70647 -2.30165,-3.79584 -5.11214,-6.86528 -7.48257,-8.17196 -9.58497,-11.66921 -9.59216,-15.9561 -0.009,-5.55089 4.6132,-11.31038 10.56153,-13.15936 4.53075,-1.40833 5.92975,-1.2209 12.2686,1.64365 13.7963,6.23459 20.65835,16.30078 17.25951,25.31863 -1.34568,3.57038 -1.62243,3.68973 -4.41841,1.90549 -1.64055,-1.0469 -4.31267,-2.71147 -5.93806,-3.69904 -2.07931,-1.26336 -2.74344,-2.64764 -2.24064,-4.67023 0.81161,-3.26482 -4.76712,-8.49932 -9.00832,-8.45248 -4.08182,0.0451 -2.86137,3.44193 4.03621,11.23388 3.58405,4.04879 6.88601,9.18996 7.33768,11.42482 0.85402,4.22568 -1.35115,10.08846 -4.92753,13.10058 -2.73735,2.30548 -10.05414,3.07537 -15.13181,1.59221 z M 387.80405,695.99155 C 223.8845,679.37697 114.71365,520.94982 157.84343,362.27603 188.79667,248.39954 288.08946,168.5004 405.68303,162.84392 c 62.37674,-3.00045 123.11168,15.75754 173.30895,53.52649 11.08758,8.3424 32.70712,29.16834 42.61506,41.05075 25.91948,31.08476 43.42787,65.72531 53.51949,105.88896 6.08522,24.21856 6.83019,31.31296 6.80325,64.78861 -0.0234,29.08927 -0.33799,33.52283 -3.45618,48.7078 -6.31136,30.73511 -18.86722,63.76533 -33.7368,88.75013 -34.23882,57.5302 -93.34552,102.75466 -158.67929,121.4107 -27.34036,7.80703 -70.84241,11.80252 -98.25346,9.02419 z m 80.29675,-9.39996 c 22.14878,-4.94643 41.6426,-11.86508 62.31103,-22.11512 29.30436,-14.53282 51.50323,-30.85071 73.95243,-54.36078 21.92392,-22.95995 34.39493,-41.18454 48.60119,-71.02367 32.57532,-68.42189 33.74975,-146.8859 3.24375,-216.71569 -13.43379,-30.75064 -28.0016,-52.29316 -51.79568,-76.59419 -23.38306,-23.88124 -44.98592,-39.40538 -74.08177,-53.23627 -93.84933,-44.61186 -204.10751,-29.76136 -284.1746,38.27503 -28.65495,24.34932 -49.03925,50.93626 -66.38495,86.58493 -19.65212,40.3888 -27.55379,78.04806 -25.98823,123.85952 0.79974,23.40209 2.63111,36.75993 7.75614,56.57248 23.7223,91.70666 96.41594,163.70104 188.36104,186.54914 26.54096,6.59535 37.29281,7.60386 71.22657,6.68091 26.72957,-0.727 32.75653,-1.30134 46.97308,-4.47629 z m -280.04697,-244.37131 -0.10951,-65.3361 19.01455,-0.21 19.01455,-0.20999 5.98897,30.74219 c 4.0541,20.81023 6.28192,29.72451 6.89574,27.59219 1.02583,-3.56357 4.06335,-20.74634 7.16916,-40.55476 1.15188,-7.3465 2.39402,-14.41065 2.76032,-15.69811 0.59468,-2.09019 2.72633,-2.36358 19.9083,-2.55334 l 19.24231,-0.21251 0.10959,65.38439 0.1096,65.38439 -12.99985,-0.23807 -12.99985,-0.23807 -0.71803,-30.66061 -0.71803,-30.6606 -5.81854,29.39938 c -3.20019,16.16966 -6.09996,30.17645 -6.44393,31.12621 -0.45279,1.25025 -3.39477,1.65074 -10.66003,1.45114 l -10.03465,-0.27568 -1.65967,-5.98204 c -0.91282,-3.29012 -4.25486,-17.20406 -7.42676,-30.91987 -3.1719,-13.7158 -6.2816,-24.93215 -6.91044,-24.9252 -0.62884,0.007 -0.71845,10.06081 -0.19915,22.34193 0.51931,12.28112 0.51753,26.382 -0.004,31.33529 l -0.94814,9.00598 -11.22652,0.12398 -11.22653,0.12399 z m 116.10076,63.05581 c -9.2e-4,-0.5496 1.17943,-7.91309 2.623,-16.3633 1.44357,-8.45021 5.59032,-33.99791 9.21501,-56.77265 3.62468,-22.77475 7.27674,-44.86643 8.11568,-49.09262 l 1.52535,-7.68398 18.38883,-0.20309 18.38882,-0.20308 1.42387,6.9847 c 0.78312,3.84159 2.34799,12.97486 3.47748,20.29617 1.12949,7.3213 2.99141,18.70143 4.1376,25.28918 6.23612,35.84217 12.69584,74.69375 12.69866,76.37529 0.002,1.00537 -4.70809,1.54121 -14.49662,1.64932 l -14.49911,0.16013 -0.73097,-3.65882 c -0.40204,-2.01235 -1.48289,-9.80089 -2.4019,-17.30786 l -1.67092,-13.64905 -5.70349,0.063 c -6.62088,0.0731 -6.45753,-0.23626 -8.49773,16.09482 -0.77983,6.24233 -1.7451,13.0034 -2.14504,15.02461 l -0.72717,3.67492 -14.55983,0.1608 c -8.00791,0.0884 -14.5606,-0.28888 -14.56152,-0.83848 z m 43.10547,-54.14676 c -0.075,-0.36586 -0.58391,-6.26157 -1.13088,-13.10158 -0.54696,-6.84 -1.39476,-12.0351 -1.88399,-11.54466 -1.12069,1.12346 -3.83682,24.62358 -2.94747,25.50172 0.82317,0.81281 6.14775,0.0488 5.96234,-0.85548 z m 51.44759,-11.2355 -0.10952,-65.33611 22.99865,-0.22471 c 24.72095,-0.24154 29.60729,0.76598 36.82476,7.59295 6.57793,6.22202 6.8693,8.61634 6.9188,56.85579 0.0421,41.04398 -0.17342,45.53296 -2.42649,50.53795 -5.32551,11.83015 -15.17533,15.36994 -43.64318,15.68434 l -20.45351,0.22589 z m 33.96575,45.48502 c 1.8644,-0.73658 2.09883,-6.04141 2.03189,-45.97833 -0.0725,-43.26955 -0.18294,-45.20186 -2.65684,-46.49751 -1.41964,-0.7435 -2.92059,-1.34807 -3.33544,-1.34349 -0.41485,0.005 -0.71857,21.30924 -0.67494,47.34367 0.0467,27.85712 0.5831,47.32978 1.30355,47.32182 0.67332,-0.007 2.17262,-0.38821 3.33178,-0.84616 z m 49.73522,18.08138 c -0.51305,-0.50659 -0.98143,-29.9223 -1.04084,-65.36825 l -0.10802,-64.44717 22.33198,-0.2392 c 12.28259,-0.13156 24.65888,0.38097 27.50285,1.13895 2.84398,0.75799 7.64864,3.65721 10.67702,6.44273 l 5.50614,5.06458 0.41488,15.76203 c 0.47286,17.9646 -1.02983,22.18194 -9.77961,27.44682 l -4.74174,2.85317 5.09658,2.77791 c 8.25435,4.49908 9.76798,9.12902 9.81436,30.02063 0.0363,16.35937 1.13145,27.51454 3.4979,35.6302 0.86493,2.96624 0.75827,2.99181 -13.11938,3.14508 -9.5892,0.1059 -14.41413,-0.36524 -15.33496,-1.49741 -2.80497,-3.44874 -4.34645,-16.48963 -4.38094,-37.06247 -0.035,-20.88272 -0.0961,-21.33327 -3.0374,-22.38968 l -3.00168,-1.0781 -0.61496,30.82949 -0.61496,30.82948 -14.0672,0.53114 c -7.73696,0.29213 -14.48697,0.11666 -15.00002,-0.38993 z m 34.66454,-81.14129 c 1.03481,-1.04811 1.58914,-6.43715 1.57428,-15.30474 -0.0204,-12.16727 -0.30954,-13.8371 -2.60411,-15.03882 -1.41964,-0.74351 -2.92059,-1.34808 -3.33545,-1.3435 -0.41485,0.005 -0.7417,7.50865 -0.72633,16.67571 0.0284,16.96113 0.83084,19.32685 5.09161,15.01135 z m 49.73081,79.30047 c -0.002,-0.96539 1.52179,-11.33284 3.38534,-23.03879 1.86356,-11.70595 4.19748,-26.39279 5.1865,-32.63743 0.98901,-6.24463 2.66603,-16.46378 3.7267,-22.7092 1.06068,-6.24543 3.32611,-20.2213 5.0343,-31.05749 l 3.1058,-19.70217 19.00418,-0.20988 c 10.4523,-0.11543 19.0157,0.24002 19.02977,0.7899 0.0385,1.50567 3.43251,22.84789 6.61487,41.59615 4.34036,25.57038 6.40173,37.79502 9.42595,55.89931 1.52852,9.15034 3.30265,19.76609 3.94252,23.59055 0.63987,3.82445 0.84864,7.27236 0.46393,7.66201 -0.38471,0.38965 -6.85866,0.77647 -14.38656,0.85961 -15.68064,0.17318 -14.22063,1.51338 -16.50646,-15.15197 -2.87931,-20.99219 -2.12802,-19.31101 -8.59793,-19.23956 l -5.72567,0.0632 -2.27501,16.29721 c -1.25125,8.96347 -2.56961,16.7785 -2.92969,17.36674 -0.36007,0.58825 -6.91888,1.13872 -14.57514,1.22328 -10.62189,0.1173 -13.92116,-0.26219 -13.9234,-1.60151 z m 41.86901,-62.37767 c -1.37006,-17.25531 -2.27986,-18.21409 -4.08076,-4.30046 -0.90222,6.9705 -1.35823,13.12591 -1.01334,13.67869 0.34488,0.55279 1.8166,0.99193 3.27048,0.97587 2.47736,-0.0274 2.59191,-0.67779 1.82362,-10.3541 z M 195.59829,680.36788 c -10.57863,-7.14198 -15.39104,-18.79254 -10.47571,-25.36103 1.89825,-2.53669 2.09391,-2.48192 6.62709,1.85515 3.13258,2.99707 4.67313,5.69026 4.6773,8.17688 0.008,4.5554 5.83683,9.08342 8.37896,6.50864 1.19545,-1.21081 1.12106,-2.27367 -0.31694,-4.52832 -8.86082,-13.89288 -9.95234,-16.13611 -9.9596,-20.46862 -0.0109,-6.50935 6.44637,-12.46131 13.60506,-12.54037 14.83592,-0.16384 30.59402,20.51946 23.71332,31.12494 l -2.24885,3.46623 -5.07335,-4.35729 c -4.03314,-3.46388 -4.94861,-5.07469 -4.46495,-7.85622 0.68797,-3.9564 -3.82087,-9.13303 -7.91547,-9.0878 -3.49017,0.0385 -3.0463,1.79498 2.93744,11.62378 6.54493,10.7506 7.00594,16.40477 1.78721,21.91979 -5.2035,5.49894 -12.66919,5.33196 -21.27151,-0.47576 z m 464.17969,-27.99463 -3.94656,-3.1778 4.26556,-5.36677 c 2.34605,-2.95172 4.26461,-5.92834 4.26346,-6.61471 -0.001,-0.68637 -5.70951,-5.81692 -12.68524,-11.40123 -6.97573,-5.5843 -12.66127,-10.54544 -12.63454,-11.02476 0.0267,-0.47932 2.04854,-3.23496 4.49292,-6.12364 l 4.44433,-5.25215 11.17804,9.08692 c 6.14792,4.9978 12.23125,9.89719 13.51849,10.88753 2.08208,1.60183 2.91744,1.15022 7.5669,-4.09087 l 5.22644,-5.89149 4.06498,3.95535 4.06497,3.95535 -14.00866,17.15575 c -7.70476,9.43566 -14.42623,17.13878 -14.93659,17.11804 -0.51037,-0.0207 -2.70389,-1.46772 -4.8745,-3.21552 z m -493.78506,-4.73991 c -3.15915,-1.52775 -7.81571,-5.46259 -10.34791,-8.74409 -9.39654,-12.17703 -8.9553,-22.54249 1.37028,-32.1902 7.0365,-6.57456 10.75054,-8.2452 18.52089,-8.33101 15.09038,-0.16666 29.71892,22.44746 22.95218,35.48157 -4.24369,8.17421 -16.11098,16.44761 -23.70889,16.5289 -1.67345,0.0179 -5.6274,-1.21742 -8.78655,-2.74517 z m 15.7068,-16.81988 c 6.4073,-5.86886 7.05985,-10.96999 2.03766,-15.92893 -4.26169,-4.20801 -8.50787,-4.04505 -14.41284,0.55314 -7.86825,6.12699 -9.33788,11.23582 -4.8543,16.87483 4.17128,5.24622 10.463,4.69882 17.22948,-1.49904 z m 496.60463,-26.71115 c -10.27635,-6.03736 -19.25204,-11.18319 -19.94598,-11.43518 -0.96472,-0.35031 2.2538,-7.22125 5.38186,-11.48924 0.18873,-0.2575 7.06375,-1.83352 15.27782,-3.50226 l 14.93468,-3.03408 -9.49338,-5.22881 c -5.22136,-2.87585 -9.5081,-5.72184 -9.52608,-6.32443 -0.018,-0.60259 1.41875,-3.61864 3.19273,-6.70233 1.77398,-3.0837 6.33085,-13.74151 10.12638,-23.68403 3.79553,-9.94253 7.32582,-18.55264 7.84509,-19.13359 1.23552,-1.38229 42.74349,14.48134 42.7466,16.33701 0.001,0.78227 -3.05046,9.38167 -6.78171,19.10976 l -6.7841,17.68745 -4.85571,-1.95702 c -2.67064,-1.07636 -5.01103,-2.09735 -5.20088,-2.26888 -0.18985,-0.17152 1.43595,-4.66898 3.61289,-9.99435 5.11049,-12.50161 5.24896,-13.60797 1.85912,-14.85447 -2.55805,-0.94064 -3.18927,-0.11146 -6.517,8.56085 -2.02654,5.28131 -3.8501,9.8093 -4.05237,10.0622 -0.20227,0.2529 -2.5158,-0.29282 -5.14119,-1.21272 -5.30237,-1.85787 -5.29777,-1.43106 -0.15248,-14.15979 l 3.1236,-7.72733 -2.87073,-1.51808 c -1.57891,-0.83494 -3.23305,-1.28989 -3.67589,-1.01099 -0.44283,0.27889 -2.79372,5.69571 -5.22419,12.03736 -3.6898,9.62754 -4.82167,11.40888 -6.85897,10.7946 -8.09564,-2.44099 -6.48425,-1.13239 11.86465,9.63529 l 20.30692,11.9167 -2.68265,4.5899 c -3.80414,6.5087 -4.39041,6.8001 -19.19471,9.54037 -7.32691,1.35621 -13.49433,2.64073 -13.70538,2.85449 -0.21105,0.21376 3.84005,2.84912 9.00245,5.85635 5.1624,3.00724 9.38666,5.75284 9.38724,6.10135 0.001,0.80654 -6.57321,11.35419 -6.99761,11.22634 -0.17421,-0.0525 -8.72467,-5.03508 -19.00102,-11.07244 z m -541.37506,0.81701 c -8.00195,-3.39494 -15.4009,-15.07906 -15.54753,-24.55201 -0.13692,-8.84654 7.86938,-19.42335 11.09977,-14.66346 4.78957,7.05729 5.17022,8.79405 2.82962,12.91061 -4.7557,8.36414 2.59639,15.92597 11.71219,12.04633 6.51516,-2.77283 11.93387,-7.95842 11.92808,-11.41492 -0.008,-4.97346 -4.47985,-9.31361 -9.53796,-9.25775 -3.81769,0.0422 -4.84963,-0.71423 -7.52045,-5.51233 l -3.0956,-5.56121 5.26997,-1.63811 c 2.89848,-0.90095 6.77862,-1.27623 8.62253,-0.83394 8.78926,2.10824 18.21062,15.92862 18.25464,26.77811 0.0319,7.87317 -4.37992,13.67801 -14.4436,19.00396 -9.08227,4.80656 -13.24356,5.37951 -19.57166,2.69472 z m -27.80454,-46.13441 c -1.21828,-3.16301 -2.2161,-6.37326 -2.21737,-7.13389 -0.002,-1.07341 23.08653,-11.2372 40.19468,-17.69422 2.97974,-1.12463 8.84732,11.13409 6.15817,12.86581 -1.30909,0.84301 -21.00615,9.17608 -40.46033,17.11721 -0.80306,0.32781 -2.45688,-1.9919 -3.67515,-5.15491 z m 13.36016,-28.56274 c -11.57976,-0.80393 -21.86004,-1.7619 -22.845069,-2.12882 -1.430459,-0.53284 -5.327078,-11.79723 -5.440199,-15.7266 -0.02696,-0.93631 38.009908,-29.44236 39.378328,-29.51139 1.42309,-0.0718 4.5155,15.0486 3.17675,15.53279 -4.29407,1.55307 -4.49624,2.54694 -2.13032,10.47297 2.05724,6.89191 2.83245,7.97723 5.9337,8.30741 2.90469,0.30925 3.83558,1.36709 5.01161,5.69506 0.79437,2.9234 1.7767,6.17413 2.18295,7.22384 0.49018,1.26657 -0.0943,1.85607 -1.7375,1.7525 -1.36188,-0.0858 -11.95049,-0.81382 -23.53025,-1.61776 z m 3.01029,-14.27361 c -0.0433,-3.49734 -1.68613,-7.68144 -3.01021,-7.66682 -1.59861,0.0177 -12.96681,7.15796 -12.9657,8.14368 4.1e-4,0.36669 3.5999,0.79178 7.99886,0.94465 5.79092,0.20125 7.9923,-0.19104 7.97705,-1.42151 z m 594.06419,-0.43115 c -11.69727,-2.38662 -21.4629,-4.53198 -21.70139,-4.76748 -0.40617,-0.40105 2.22564,-14.18212 2.70896,-14.18509 1.08615,-0.007 19.91487,4.02204 23.4753,5.02293 2.51918,0.70818 4.75229,1.11342 4.96247,0.90054 0.21018,-0.21288 -5.60494,-3.26466 -12.92251,-6.78172 -14.18021,-6.81548 -14.99129,-7.87908 -12.02008,-15.76232 1.20792,-3.20489 1.8987,-3.44792 10.3268,-3.63323 4.96776,-0.10922 11.7314,-0.65811 15.03032,-1.21976 l 5.99803,-1.02117 -7.56335,-0.8622 c -4.15985,-0.47421 -10.67673,-1.54627 -14.48196,-2.38237 l -6.91861,-1.52017 0.80761,-5.97472 c 0.44418,-3.2861 1.09498,-6.26579 1.44622,-6.62154 0.52672,-0.53348 39.199,6.40244 44.20712,7.9286 1.10175,0.33574 0.97611,3.12845 -0.46119,10.25113 -1.08651,5.38432 -2.18485,10.01704 -2.44076,10.29494 -0.2559,0.27789 -6.63921,0.96328 -14.18512,1.52309 l -13.71984,1.01783 12.34317,6.17777 c 6.78874,3.39777 12.31823,6.92206 12.28776,7.83176 -0.15683,4.68181 -3.48615,17.53341 -4.6131,17.80716 -0.71395,0.17343 -10.86859,-1.63736 -22.56585,-4.02398 z M 89.482583,496.64556 c -0.0015,-0.89025 -1.257671,-10.93143 -2.791509,-22.31372 -3.064525,-22.74121 -3.031227,-22.89886 4.863035,-23.02491 4.000838,-0.0639 4.176374,0.17533 4.969737,6.7726 0.452326,3.76135 1.034836,7.04857 1.294466,7.30493 0.25963,0.25636 7.818828,-0.56627 16.798218,-1.82807 8.97938,-1.2618 16.67126,-1.95343 17.09305,-1.53695 0.42178,0.41647 1.05378,3.68898 1.40443,7.27224 l 0.63754,6.51502 -5.81787,0.86026 c -3.19982,0.47314 -10.84346,1.61636 -16.98586,2.54049 l -11.168005,1.68023 0.830575,7.81287 0.83058,7.81287 -3.870274,0.0427 c -2.128649,0.0235 -4.818675,0.41744 -5.977836,0.87539 -1.208537,0.47746 -2.108722,0.14218 -2.110277,-0.78599 z M 731.1372,454.95665 c -5.75439,-3.442 -7.09554,-6.41194 -7.11119,-15.74751 l -0.0133,-7.93436 -7.33442,-0.83529 -7.33442,-0.8353 -0.0125,-7.43335 -0.0125,-7.43336 10.20199,0.7497 c 5.6111,0.41233 16.1866,0.6836 23.50113,0.60282 l 13.29913,-0.14687 -0.61108,15.00766 c -0.6925,17.007 -2.18749,21.35457 -8.37769,24.36308 -5.82509,2.83105 -11.05798,2.71563 -16.19523,-0.35722 z m 13.24094,-17.88035 c 0.85572,-5.69768 0.33472,-6.33741 -5.11223,-6.27726 -4.31056,0.0476 -4.58725,0.31917 -4.58025,4.4953 0.009,5.38774 0.73536,6.21448 5.41432,6.16281 3.06707,-0.0339 3.72675,-0.70939 4.27816,-4.38085 z m -655.315427,7.93272 -5.000571,-0.46782 -0.03339,-19.92036 -0.03339,-19.92036 5.333008,-0.0589 5.333008,-0.0589 0.02123,12.6672 c 0.02116,12.62276 0.03293,12.66708 3.354362,12.63039 3.234327,-0.0357 3.337327,-0.32342 3.474807,-9.70563 0.0779,-5.31785 0.0699,-10.11805 -0.0179,-10.66712 -0.0878,-0.54906 2.21602,-1.02453 5.11952,-1.0566 l 5.27909,-0.0583 0.40567,10.99619 c 0.39613,10.73746 0.4841,10.99532 3.7388,10.95938 3.30134,-0.0365 3.33656,-0.16084 3.69293,-13.04158 l 0.35981,-13.00476 5.28472,-0.0584 5.28473,-0.0584 0.0346,20.66754 0.0346,20.66755 -18.33259,-0.0217 c -10.08293,-0.0119 -20.582852,-0.23221 -23.333167,-0.48951 z M 723.01219,411.01261 c -6.43817,-1.45292 -10.70802,-4.70452 -13.62815,-10.37814 -5.55968,-10.8021 -4.82416,-24.73253 1.68848,-31.97907 l 2.83038,-3.14933 -4.90284,0.96925 -4.90285,0.96925 -2.87464,-9.76602 c -1.58106,-5.37131 -4.0159,-13.62543 -5.41077,-18.3425 -1.39487,-4.71706 -2.40809,-8.68714 -2.25162,-8.82239 0.15648,-0.13525 9.27974,-2.85792 20.27392,-6.05037 10.99418,-3.19245 21.00667,-6.10238 22.24996,-6.46652 1.75939,-0.51528 2.72136,0.87608 4.33914,6.27596 1.14323,3.81591 1.93086,7.0653 1.75029,7.22086 -0.18058,0.15557 -7.52459,2.32369 -16.32004,4.81804 -8.79544,2.49436 -16.17584,4.68269 -16.40087,4.86296 -0.22504,0.18028 0.95854,5.49494 2.63018,11.81037 2.42149,9.14833 3.45703,11.31252 5.09402,10.64601 8.6808,-3.53445 21.06668,-3.08642 27.40294,0.99123 10.63358,6.84316 12.80038,29.98675 3.71794,39.71134 -5.07862,5.43768 -16.92285,8.5663 -25.28547,6.67907 z M 737.705,394.61447 c 3.90779,-2.10212 4.8612,-3.77503 4.87737,-8.5581 0.0242,-7.14167 -3.15555,-9.9291 -11.22472,-9.83998 -9.21828,0.1018 -14.09749,3.65319 -14.08642,10.25295 0.011,6.57593 3.85392,9.86127 11.43689,9.77753 3.348,-0.037 7.3966,-0.77156 8.99688,-1.6324 z m -621.70165,6.9068 c 0.0438,-6.9535 1.90686,-12.16034 4.74945,-13.2733 3.45843,-1.35409 5.87695,-9.87292 3.476,-12.24363 -2.19872,-2.17102 -4.07198,-0.11237 -8.14604,8.95219 -5.07869,11.29985 -8.05305,14.14486 -14.86662,14.22011 -10.763127,0.11887 -16.218547,-10.17496 -13.194322,-24.89636 1.854077,-9.02531 8.091012,-16.38313 13.942122,-16.44775 3.58304,-0.0396 3.63268,0.0721 2.8014,6.30278 -0.61419,4.60346 -1.75679,7.02358 -4.16627,8.82442 -3.64444,2.72386 -4.3757,7.72756 -1.475916,10.0991 2.177856,1.78111 4.794146,-1.62913 7.397896,-9.64288 2.21366,-6.81317 7.31136,-12.67001 11.96196,-13.74332 5.39619,-1.24537 12.83232,2.12966 15.35789,6.97049 4.13023,7.91655 1.31507,26.03661 -4.97561,32.0259 -3.83126,3.64772 -12.87957,5.65426 -12.86194,2.85225 z m 574.35332,-79.18786 c -1.49853,-3.46747 -5.18131,-11.83762 -8.18396,-18.60035 -3.00265,-6.76272 -5.21967,-12.51601 -4.92672,-12.78509 1.93473,-1.77702 41.5792,-18.63192 42.2549,-17.96473 0.463,0.45717 4.28114,8.69117 8.48476,18.29778 l 7.64294,17.46656 -4.06085,1.75372 c -5.84652,2.52488 -6.06844,2.41467 -9.10991,-4.52424 -7.18477,-16.39155 -7.09063,-16.25869 -10.26251,-14.48234 l -2.91407,1.63197 3.89388,8.62174 c 2.14163,4.74195 3.91183,9.31289 3.93378,10.15762 0.0298,1.14547 -6.37987,4.5345 -8.6229,4.55927 -0.14866,0.002 -2.21313,-4.17581 -4.58769,-9.28323 -4.27372,-9.19229 -5.64833,-10.36664 -9.345,-7.98365 -1.58057,1.01889 -1.06786,3.0662 3.02009,12.05935 2.70812,5.95767 4.9246,11.27044 4.9255,11.80616 8.9e-4,0.53572 -2.11771,2.00901 -4.708,3.27398 l -4.70963,2.29995 z m -565.83045,2.37323 c -10.27403,-4.65481 -19.17237,-8.93208 -19.77408,-9.50505 -0.60172,-0.57296 0.70311,-5.04029 2.89961,-9.9274 4.54733,-10.11759 3.89315,-9.89091 20.1597,-6.98545 6.02821,1.07673 11.15882,1.7567 11.40136,1.51105 0.24254,-0.24566 -4.32855,-4.22216 -10.15799,-8.83667 -5.82943,-4.61451 -10.59934,-8.61578 -10.59981,-8.89171 -9.3e-4,-0.55689 8.05721,-16.92469 8.6791,-17.62908 0.21571,-0.24433 8.30203,3.16452 17.96958,7.57523 9.66756,4.41071 17.74848,7.81962 17.95759,7.57536 0.20912,-0.24425 -5.03275,-8.0679 -11.6486,-17.38588 l -12.0288,-16.94178 4.87981,-7.15732 4.87982,-7.15733 19.13355,4.82728 c 10.52346,2.65501 20.55286,5.22607 22.28755,5.71347 2.06609,0.58052 -1.79361,-4.04351 -11.18973,-13.40561 -7.88905,-7.86049 -14.75655,-14.74353 -15.26112,-15.29564 -0.50456,-0.55211 0.83564,-2.88668 2.97823,-5.18794 l 3.89562,-4.1841 16.00036,0.62389 16.00037,0.62388 -8.43952,-8.10459 -8.43952,-8.10458 4.7511,-4.81214 4.7511,-4.81213 14.69054,14.4601 c 8.0798,7.95305 14.68923,13.67977 14.68763,12.72604 -0.002,-1.44969 -9.84473,-34.90076 -11.64639,-39.58262 -0.72965,-1.89612 12.61271,-11.71152 14.80816,-10.89373 2.93437,1.09303 38.77969,24.69016 39.20143,25.80647 0.22447,0.59418 -2.36163,3.01899 -5.74691,5.38848 -5.85447,4.09778 -6.27835,4.19809 -8.68011,2.05408 -2.40374,-2.14578 -2.79968,-2.03993 -8.23978,2.20274 -3.14309,2.45125 -6.21954,4.89125 -6.83656,5.42221 -0.61702,0.53096 -0.39585,2.30985 0.49149,3.95308 1.37222,2.54117 1.24233,3.19786 -0.86908,4.39389 -1.36533,0.7734 -5.84732,4.65063 -9.95997,8.61606 l -7.47754,7.20988 -15.17724,-0.69497 -15.17724,-0.69497 7.96087,8.06336 7.96087,8.06336 -4.73646,5.0633 c -2.60505,2.78481 -6.41582,7.35942 -8.46838,10.16579 -3.09662,4.23387 -4.32144,4.9814 -7.19488,4.39117 -2.99125,-0.61442 -4.06074,0.17802 -7.85156,5.81761 -3.82454,5.68975 -4.19341,6.95368 -2.86989,9.83357 1.33786,2.91111 0.87746,4.30659 -3.86616,11.71825 -2.96168,4.62748 -5.74481,9.55779 -6.18473,10.95624 -0.43991,1.39845 -1.37137,2.54894 -2.0699,2.55666 -0.69852,0.008 -6.81234,-2.68322 -13.58626,-5.97984 -13.27877,-6.46231 -13.22323,-6.2179 1.3667,6.01457 l 9.67656,8.11301 -2.68985,5.32027 c -2.17744,4.30678 -3.25475,5.20064 -5.65526,4.69226 -8.39584,-1.77804 -26.87861,-4.27872 -27.43787,-3.71227 -0.35292,0.35745 0.13695,0.64132 1.08859,0.63081 0.95164,-0.0105 7.32277,2.37031 14.15806,5.29071 l 12.42781,5.30981 -2.84989,5.91843 c -1.56744,3.25514 -3.48037,5.87912 -4.25095,5.83108 -0.77059,-0.048 -9.8071,-3.89583 -20.08113,-8.55065 z m 44.46964,-69.82419 c 1.5268,-1.96227 2.6174,-3.69359 2.42355,-3.84739 -1.23298,-0.97823 -15.69373,-5.40634 -15.69273,-4.80536 0.002,1.21444 8.60981,12.15534 9.58992,12.18925 0.49678,0.0172 2.15245,-1.57423 3.67926,-3.5365 z m 68.66911,-71.37915 c 1.80544,-1.20435 3.28194,-2.59267 3.28111,-3.08515 -8.2e-4,-0.49248 -3.00507,-3.10209 -6.6761,-5.79913 -3.67103,-2.69705 -6.67412,-4.61458 -6.67353,-4.26119 0.002,1.43627 5.59567,15.34835 6.16817,15.34203 0.33975,-0.004 2.09491,-0.9922 3.90035,-2.19656 z m 426.09012,87.11987 c -2.20339,-3.45921 -3.86033,-6.98776 -3.6821,-7.84123 0.17823,-0.85347 6.81517,-9.85058 14.74876,-19.99358 15.68671,-20.05528 14.88837,-19.65944 20.53767,-10.18318 l 2.76401,4.63642 -10.44292,12.09208 c -5.7436,6.65065 -10.28276,12.25023 -10.08701,12.44351 0.19575,0.19329 6.75971,-1.51852 14.58657,-3.804 7.82687,-2.28549 14.81679,-4.16191 15.53316,-4.16982 1.31877,-0.0146 8.01852,9.64749 8.02174,11.56857 0.001,0.87426 -43.9569,11.71382 -46.97614,11.5837 -0.54867,-0.0236 -2.80035,-2.87325 -5.00374,-6.33247 z M 637.8719,235.97902 c -7.08028,-7.94929 -12.87372,-14.74292 -12.87431,-15.09696 -0.002,-0.96039 33.5043,-30.5391 34.60761,-30.55128 0.86113,-0.01 21.14896,22.54902 24.98598,27.78252 1.34643,1.83646 0.93298,2.69275 -2.57169,5.3261 l -4.17606,3.13783 -8.35873,-9.13108 c -7.91238,-8.64347 -8.48216,-9.00755 -10.6701,-6.81794 -2.19109,2.19278 -1.94339,2.73138 4.76067,10.35127 3.88962,4.42098 6.85369,8.15911 6.58683,8.30697 -0.26686,0.14785 -2.09246,1.70341 -4.05687,3.4568 l -3.57167,3.18797 -3.90782,-4.43878 c -2.1493,-2.44133 -5.46024,-6.22175 -7.35764,-8.40093 -3.44978,-3.9621 -3.44985,-3.96212 -6.11139,-1.26592 -2.66148,2.69612 -2.66124,2.6966 6.05741,12.45815 l 8.71898,9.76192 -3.777,3.13634 c -2.07735,1.72498 -4.14464,3.16197 -4.59398,3.19331 -0.44934,0.0313 -6.60994,-6.44699 -13.69022,-14.39629 z m -31.08671,-30.91401 c -4.30247,-3.17016 -9.91229,-7.53164 -12.46626,-9.69218 l -4.64359,-3.92824 5.9581,-7.26924 c 18.33063,-22.36448 23.34097,-28.06462 24.68135,-28.07943 0.81672,-0.009 6.34532,4.58021 12.28578,10.19828 14.54123,13.75207 16.34316,20.91173 8.24884,32.77534 -5.35329,7.84615 -11.54035,11.59705 -19.27002,11.68241 -6.16008,0.068 -7.88204,-0.59389 -14.7942,-5.68694 z m 16.51055,-8.76902 c 3.13625,-2.02821 8.30998,-10.16835 8.30512,-13.06694 -0.003,-1.59093 -1.64917,-4.5162 -3.65889,-6.50061 l -3.65403,-3.60801 -5.74346,6.53015 c -3.15891,3.59158 -6.72953,7.96861 -7.93472,9.72674 -2.08512,3.04174 -2.04185,3.31576 0.89328,5.65714 3.18832,2.54335 8.87066,3.15122 11.7927,1.26153 z m -58.77877,-20.37483 -6.41302,-3.26404 0.88504,-9.14811 c 0.82539,-8.53143 0.68669,-9.25199 -2.05753,-10.68921 -3.48165,-1.82342 -2.87277,-2.36196 -7.2339,6.39831 l -3.5087,7.04799 -6.72058,-3.32888 -6.72059,-3.32888 9.5611,-18.37929 c 5.2586,-10.10861 10.09571,-19.43122 10.74914,-20.71692 1.07187,-2.10901 2.52151,-1.68752 14.82318,4.30992 15.97027,7.78598 19.30306,10.47962 20.4502,16.52831 1.60015,8.43736 -4.61655,16.48319 -12.8058,16.57363 -2.69026,0.0297 -2.81124,0.57311 -2.38152,10.69675 0.2776,6.53971 -0.0631,10.64592 -0.88064,10.61496 -0.73335,-0.0278 -4.21922,-1.51931 -7.74638,-3.31454 z m 8.09014,-30.23235 c 2.74121,-2.77643 1.77841,-4.93526 -3.72067,-8.3427 -2.92167,-1.81038 -5.55124,-3.28895 -5.8435,-3.28573 -0.79717,0.009 -3.94687,8.05967 -3.35321,8.57105 1.37674,1.1859 8.68856,4.60382 9.92015,4.63719 0.77,0.0209 2.11876,-0.69006 2.99723,-1.57981 z m -307.00316,30.10286 c -7.67835,-4.15853 -15.31891,-16.08972 -15.35986,-23.98536 -0.0663,-12.79016 14.1892,-25.1154 29.24112,-25.28163 5.42257,-0.0599 7.44309,0.61674 10.87643,3.6423 l 4.21668,3.71586 -6.31569,3.77508 c -4.5949,2.74651 -6.71613,3.3797 -7.78537,2.32393 -4.54472,-4.48748 -15.59772,1.34395 -15.58619,8.22308 0.0136,8.11931 6.33292,15.74659 12.98541,15.67312 4.82124,-0.0532 11.03151,-4.96973 11.02521,-8.72835 -0.004,-2.51618 -1.02188,-2.51651 -5.33311,-0.002 -4.58102,2.67217 -4.99139,2.57534 -7.22438,-1.70469 l -1.96319,-3.76291 10.40435,-5.66421 c 5.72239,-3.11532 10.77643,-5.66832 11.2312,-5.67334 0.92514,-0.0102 11.55719,20.49634 11.5602,22.29674 0.003,2.06184 -6.18954,4.24864 -7.72855,2.72901 -0.97123,-0.95899 -2.66029,0.0781 -5.54954,3.40736 -7.53166,8.67872 -21.31868,13.01052 -28.69472,9.01572 z m 46.68494,-17.54695 c -1.27223,-2.03913 -15.58143,-41.56614 -15.1675,-41.8979 1.20914,-0.96908 13.16507,-5.12652 13.49518,-4.69267 1.01508,1.33407 15.80599,42.60422 15.40531,42.98446 -0.82004,0.77821 -10.74627,4.82616 -11.86482,4.83852 -0.60046,0.007 -1.44114,-0.54795 -1.86817,-1.23241 z m 197.03162,-5.50925 c -18.09769,-5.45666 -23.88358,-18.648 -15.49078,-35.31765 4.59932,-9.13509 10.00411,-12.57054 19.54723,-12.42483 15.81793,0.24151 27.45718,9.67081 27.4598,22.246 0.003,12.28497 -6.66271,23.2497 -15.72489,25.86828 -6.17072,1.78308 -8.85398,1.7199 -15.79136,-0.3718 z m 10.41502,-11.63705 c 5.81266,-3.17821 8.57015,-17.70115 4.09646,-21.57488 -6.52749,-5.65208 -13.59308,-3.68773 -16.92189,4.70456 -3.08661,7.78168 -2.64551,12.48504 1.46985,15.67286 3.91831,3.03519 7.33548,3.39554 11.35558,1.19746 z m -188.77688,9.04145 c -2.32514,-7.36146 -9.9091,-42.03235 -9.38242,-42.89277 0.35062,-0.5728 3.32773,-1.47474 6.6158,-2.00431 5.74597,-0.92545 6.36803,-0.67418 16.00652,6.46563 14.33229,10.61678 14.11826,10.64749 11.18565,-1.60502 -1.3679,-5.71509 -2.50771,-10.469616 -2.53291,-10.565619 -0.16051,-0.611374 12.40179,-3.286529 12.93959,-2.7555 0.36685,0.362228 2.72569,9.513749 5.24188,20.336719 2.51618,10.82297 4.87984,20.66019 5.25258,21.8605 0.5268,1.69645 -0.78315,2.54915 -5.88328,3.82961 l -6.56098,1.64724 -11.82157,-8.52908 c -6.50186,-4.69099 -12.00546,-8.34282 -12.23022,-8.11517 -0.22477,0.22766 0.76978,4.97171 2.21011,10.54234 1.44033,5.57064 2.17771,10.40621 1.63863,10.74572 -0.53908,0.33951 -3.45792,1.20165 -6.48631,1.91587 -4.62691,1.09122 -5.61586,0.95131 -6.19307,-0.87616 z m 124.72709,-9.74634 c -3.21873,-0.55353 -6.14846,-1.29892 -6.51052,-1.65642 -0.60172,-0.59414 1.65606,-17.2285 5.0996,-37.5715 l 1.37273,-8.109581 15.5746,2.250724 c 23.31133,3.368779 21.83372,2.759469 20.79457,8.574897 -0.48858,2.73426 -0.99347,5.10752 -1.12198,5.27391 -0.1285,0.1664 -5.15217,-0.42568 -11.1637,-1.31572 -6.01152,-0.89004 -11.22705,-1.31745 -11.59005,-0.94978 -0.363,0.36766 -0.65726,2.29941 -0.65392,4.29278 0.006,3.40527 0.46194,3.67621 7.54955,4.4834 9.95066,1.13325 11.13038,1.66959 11.11189,5.05182 -0.0329,6.01819 -1.74052,6.86884 -10.88134,5.42051 -4.63315,-0.7341 -8.83151,-1.09913 -9.32968,-0.81117 -0.49817,0.28795 -1.31233,3.82672 -1.80924,7.86392 -0.49691,4.03719 -1.283,7.53572 -1.74688,7.77449 -0.46387,0.23878 -3.4769,-0.0188 -6.69563,-0.57228 z m -70.41982,-2.98238 c -12.76402,-7.63472 -12.9399,-32.47385 -0.29026,-40.995008 7.03679,-4.74018 22.14544,-6.017924 29.12488,-2.463101 4.0919,2.084114 10.70903,9.687549 10.71343,12.310279 8.7e-4,0.52276 -2.99852,1.33904 -6.66532,1.81395 -5.87198,0.76053 -7.05754,0.47778 -9.94295,-2.37128 -5.1338,-5.06914 -13.62022,-3.41427 -16.62651,3.2422 -2.02,4.47264 -0.43176,14.64617 2.78187,17.81932 3.52692,3.4825 11.05378,3.13961 14.82014,-0.67513 l 2.99479,-3.03326 -5.57694,-0.34403 c -4.99083,-0.30787 -5.6705,-0.76582 -6.46724,-4.35752 -0.48967,-2.20742 -0.68352,-4.19133 -0.43077,-4.4087 0.25274,-0.21736 5.91924,-0.85189 12.59221,-1.41006 l 12.13269,-1.01486 0.8822,10.22498 c 1.42597,16.52749 1.43385,16.48359 -2.96441,16.53216 -2.21624,0.0245 -4.18842,-0.81345 -4.63589,-1.96967 -0.67252,-1.73772 -1.46225,-1.63803 -5.7881,0.73063 -6.85052,3.75107 -20.67955,3.94257 -26.65382,0.3691 z"
       id="path1" />
  </g>
</svg>
